<?xml version="1.0" encoding="UTF-8"?>
<svg version="1.1" xmlns="http://www.w3.org/2000/svg" width="4000" height="2400">
<path d="M0 0 C1.34640088 -0.0029972 2.69280091 -0.00640101 4.03919983 -0.01017761 C7.68052049 -0.01897307 11.32181762 -0.02135408 14.96314788 -0.0219934 C17.24885978 -0.02270739 19.53456582 -0.02484847 21.82027626 -0.02749062 C29.82615153 -0.03673523 37.8320102 -0.04082735 45.83789062 -0.04003906 C53.24601196 -0.03944121 60.65405979 -0.04993745 68.06216258 -0.06578273 C74.46090409 -0.07897051 80.85962195 -0.08421818 87.2583769 -0.08358365 C91.06236025 -0.08333158 94.86627847 -0.08601773 98.67024803 -0.0967617 C158.29845001 -0.25297637 158.29845001 -0.25297637 175.86254883 15.15307617 C194.73577106 34.28572414 200.19083128 64.22601709 206.48397827 89.30203247 C207.49646806 93.32657064 208.52114141 97.34800855 209.54418945 101.36987305 C211.53778368 109.21538717 213.52036073 117.06364224 215.4983902 124.91309357 C217.12751955 131.37787965 218.75958799 137.84191652 220.39379883 144.30541992 C220.62915533 145.23630936 220.86451183 146.16719879 221.10700035 147.126297 C221.58499642 149.01680826 222.06300537 150.90731626 222.54102707 152.79782104 C223.74562402 157.56200829 224.94991491 162.32627286 226.15405273 167.09057617 C226.39389704 168.03954269 226.63374134 168.98850922 226.88085365 169.9662323 C228.35361572 175.79421952 229.82491858 181.62257323 231.29519844 187.45118713 C237.36962301 211.53158356 243.49819619 235.59699064 249.69848633 259.64526367 C258.2675481 292.88098851 266.65228246 326.16256765 275.03040314 359.4468689 C282.64504653 389.69698686 290.27899493 419.94095104 298.07348633 450.14526367 C306.19449414 481.61485499 314.14018084 513.12788044 322.07348633 544.64526367 C330.02777005 576.2459339 337.99468938 607.84220506 346.13598633 639.39526367 C354.06268235 670.11659783 361.8268568 700.87807005 369.57348633 731.64526367 C378.0531316 765.32319252 386.57513811 798.98877026 395.24178219 832.61906624 C396.16131586 836.18759883 397.08046697 839.75622977 397.99926758 843.32495117 C398.17998621 844.02684948 398.36070484 844.72874779 398.5468998 845.45191574 C403.67486975 865.37694728 408.71670389 885.32391513 413.76098633 905.27026367 C413.98574646 906.1589917 414.21050659 907.04771973 414.44207764 907.96337891 C417.15471021 918.6901277 419.86524498 929.41740536 422.57348633 940.14526367 C426.51533358 927.23705729 429.48840583 914.10396178 432.55004883 900.96557617 C433.14512882 898.42374111 433.74054641 895.88198507 434.33627319 893.34030151 C435.61869652 887.86706801 436.89885601 882.39330933 438.17749023 876.91918945 C440.23412601 868.11476256 442.29577219 859.31151289 444.35864258 850.50854492 C444.53404871 849.76002054 444.70945483 849.01149615 444.8901763 848.24028921 C445.78749764 844.41118023 446.68490168 840.58209065 447.58235931 836.75301361 C448.31470839 833.62830177 449.0468829 830.5035491 449.77890778 827.37876129 C455.19682155 804.25158448 460.6357067 781.1294406 466.09692383 758.01245117 C466.27146922 757.27359633 466.4460146 756.53474149 466.62584925 755.7734971 C468.74253988 746.81381211 470.86013384 737.85434073 472.97802436 728.8949393 C476.37594187 714.52040503 479.77218337 700.14547477 483.16723633 685.77026367 C483.34363695 685.0233695 483.52003757 684.27647532 483.70178366 683.50694799 C488.95473345 661.26477894 494.19397371 639.01942313 499.41723633 616.77026367 C499.57611706 616.09349075 499.73499779 615.41671783 499.89869308 614.71943665 C502.29111153 604.52823822 504.68239876 594.33677442 507.07348633 584.14526367 C517.68957397 538.89641008 528.34654965 493.6573781 539.03468037 448.42548752 C549.96148225 402.18332243 560.86435379 355.93567291 571.72158527 309.67712116 C572.51329615 306.30400287 573.30508214 302.93090221 574.09686279 299.55780029 C575.36105936 294.17209478 576.62523132 288.7863835 577.88937378 283.40066528 C578.04625376 282.73229861 578.20313375 282.06393194 578.36476767 281.37531173 C579.15760362 277.99752465 579.95042641 274.61973448 580.74322891 271.24193954 C587.67639378 241.70273838 594.61304579 212.16435758 601.55806541 182.62794113 C603.27030244 175.3458932 604.98209791 168.06374235 606.69244385 160.78125 C610.08933436 146.31864999 613.49271365 131.85763401 616.91369438 117.40070724 C618.40911253 111.07976958 619.90008864 104.75784481 621.38195801 98.43371582 C622.84430528 92.19309019 624.31671289 85.95491865 625.79626083 79.71834946 C626.34037275 77.41714435 626.88095706 75.11510157 627.41757584 72.8121376 C639.04574293 22.94915363 639.04574293 22.94915363 659.32348633 9.77026367 C680.41855027 -1.80749235 706.22719392 -0.01596231 729.45239258 -0.02270508 C732.07250486 -0.02592548 734.69261696 -0.02929011 737.31272888 -0.03279114 C742.79035737 -0.03915375 748.26797379 -0.04067706 753.74560547 -0.04003906 C760.01891904 -0.03944017 766.29214611 -0.04996604 772.56543785 -0.06578273 C778.6650873 -0.0805968 784.76469626 -0.08402272 790.86436272 -0.08342934 C793.42876475 -0.0845968 795.99316767 -0.08894775 798.55755806 -0.0967617 C856.39858791 -0.2564957 856.39858791 -0.2564957 874.26098633 16.14526367 C881.36658741 23.74571911 885.94956318 32.93690577 889.55322266 42.61914062 C889.81070439 43.31083753 890.06818613 44.00253443 890.33347034 44.71519184 C892.98417761 52.01554694 894.90102875 59.45444241 896.71020508 67.00073242 C897.08894255 68.54938496 897.46825156 70.0978978 897.84806824 71.64628601 C899.10857281 76.80818019 900.3438379 81.97594274 901.57348633 87.14526367 C901.79115913 88.0599366 902.00883194 88.97460953 902.23310089 89.91699982 C905.71871306 104.58149107 909.14498762 119.25977191 912.56570053 133.93951035 C914.86152354 143.78642831 917.16502931 153.63155493 919.46673775 163.47709846 C920.36696545 167.32822021 921.26686881 171.17941764 922.16673279 175.03062439 C928.21562633 200.91406806 934.30353032 226.78829157 940.39645386 252.66139984 C943.03693648 263.87459627 945.6762762 275.08806182 948.31567383 286.30151367 C948.75837994 288.18227915 948.75837994 288.18227915 949.2100296 290.10103989 C956.28321537 320.15129811 963.34205392 350.20492254 970.39904022 380.25898838 C971.04853662 383.02502256 971.69805276 385.79105211 972.34756923 388.55708158 C977.25404881 409.45181968 982.15991086 430.34670276 987.06567192 451.24160957 C991.96791744 472.12153436 996.87034716 493.00141587 1001.77335691 513.88116121 C1002.26121223 515.9587257 1002.74906222 518.03629143 1003.23691177 520.11385727 C1013.24393281 562.72970924 1023.26410402 605.34245229 1033.29354858 647.95303345 C1039.94527534 676.21354125 1046.59269041 704.47505463 1053.22973633 732.73901367 C1053.39082846 733.42502687 1053.5519206 734.11104006 1053.71789432 734.81784153 C1056.3320065 745.95019469 1058.94574588 757.08263537 1061.559443 768.21508598 C1063.97150903 778.48872613 1066.3836742 788.76234299 1068.79614258 799.03588867 C1068.95500545 799.71240951 1069.11386832 800.38893034 1069.27754521 801.08595181 C1077.01244165 834.02464358 1084.76030145 866.96028393 1092.51098633 899.89526367 C1092.66624912 900.55502449 1092.82151192 901.21478531 1092.98147964 901.89453888 C1096.84494488 918.31157355 1100.70892492 934.72848701 1104.57348633 951.14526367 C1105.95703592 948.53383207 1106.96676743 946.08434298 1107.69770813 943.22309875 C1107.89723933 942.45137203 1108.09677053 941.67964531 1108.30234814 940.88453293 C1108.6208572 939.62394499 1108.6208572 939.62394499 1108.94580078 938.33789062 C1109.17617444 937.44148991 1109.4065481 936.54508919 1109.64390278 935.62152481 C1110.41247434 932.6266109 1111.1745726 929.63008743 1111.93676758 926.63354492 C1112.48096949 924.50818684 1113.02560566 922.38293991 1113.57064819 920.25779724 C1114.73668069 915.70811398 1115.89997739 911.15774348 1117.06112671 906.60681152 C1118.89953311 899.40196112 1120.74419652 892.19872293 1122.59033203 884.99584961 C1123.05243403 883.19282725 1123.05243403 883.19282725 1123.52387142 881.3533802 C1124.14730598 878.92090155 1124.77075818 876.48842741 1125.39422798 874.05595779 C1126.33444541 870.38689083 1127.27409044 866.71767768 1128.21360779 863.0484314 C1133.31660163 843.12253704 1138.4636283 823.20832253 1143.63615799 803.30038071 C1145.53975421 795.97297348 1147.44136008 788.64504924 1149.34301758 781.31713867 C1149.55352942 780.50602316 1149.76404125 779.69490765 1149.98093224 778.85921288 C1155.49099555 757.62662286 1160.96969347 736.38593974 1166.44848633 715.14526367 C1166.95542141 713.18001236 1167.46235907 711.2147617 1167.96929932 709.24951172 C1168.22021961 708.27676804 1168.47113991 707.30402435 1168.72966385 706.30180359 C1169.74326344 702.3723844 1170.7568639 698.44296543 1171.77047729 694.5135498 C1172.27740129 692.54838226 1172.7843186 690.58321298 1173.29122925 688.61804199 C1178.89976902 666.87546699 1184.51689924 645.1351149 1190.13598633 623.39526367 C1190.61318033 621.54899109 1191.09037353 619.70271831 1191.56756592 617.85644531 C1193.47387084 610.48093967 1195.38022785 603.1054475 1197.28668213 595.72998047 C1200.63138344 582.79038708 1203.97564663 569.85068052 1207.31958008 556.91088867 C1207.55688402 555.9926104 1207.79418797 555.07433212 1208.03868294 554.12822723 C1209.2374544 549.48941704 1210.43621848 544.85060495 1211.63497925 540.21179199 C1213.79154407 531.86660448 1215.94817427 523.52143386 1218.10479927 515.1762619 C1219.30269761 510.54092984 1220.50059176 505.9055967 1221.69848633 501.27026367 C1222.17765297 499.416097 1222.65681964 497.56193033 1223.13598633 495.70776367 C1223.37317383 494.78995117 1223.61036133 493.87213867 1223.85473633 492.92651367 C1239.90681966 430.81193034 1255.95890299 368.69734701 1272.01098633 306.58276367 C1272.2481754 305.66494488 1272.48536448 304.74712608 1272.7297411 303.8014946 C1273.20889147 301.94739141 1273.68804224 300.09328832 1274.16719341 298.23918533 C1275.36536271 293.60279836 1276.56352502 288.96640958 1277.76167297 284.33001709 C1279.91489885 275.99785178 1282.06817262 267.66569886 1284.22171116 259.33361435 C1285.41582737 254.71354814 1286.60990212 250.09347122 1287.80395508 245.47338867 C1288.15882524 244.10031429 1288.15882524 244.10031429 1288.52086449 242.69950104 C1292.42991977 227.57407164 1296.33557676 212.44776637 1300.24036789 197.32123566 C1304.31712277 181.52909369 1308.39974447 165.73847539 1312.48648071 149.94891357 C1314.95130358 140.42454805 1317.41096256 130.89888021 1319.86319637 121.37126541 C1321.51553203 114.95271631 1323.17303958 108.53551737 1324.83454227 102.11933517 C1325.78357684 98.4536843 1326.73029374 94.78747949 1327.6703186 91.11950684 C1345.28561937 22.41569331 1345.28561937 22.41569331 1366.26098633 9.48901367 C1387.71457812 -1.90820697 1413.60066684 -0.16747767 1437.19708109 -0.12338734 C1440.83401668 -0.11823069 1444.47094352 -0.12304402 1448.10787964 -0.12615967 C1454.19767101 -0.12976713 1460.28741338 -0.1250811 1466.37719727 -0.11547852 C1473.38760363 -0.10455101 1480.39789399 -0.10816355 1487.40829766 -0.11913133 C1493.47594408 -0.12823835 1499.54355584 -0.12947431 1505.61120689 -0.12425399 C1509.21458009 -0.12115926 1512.8178989 -0.12065632 1516.42126846 -0.12732697 C1520.43057279 -0.13423559 1524.4396797 -0.12463213 1528.44897461 -0.11352539 C1529.62008286 -0.11757385 1530.7911911 -0.12162231 1531.99778748 -0.12579346 C1542.73595373 -0.07093167 1554.12533855 0.42366776 1562.51489258 7.86791992 C1569.77012777 15.4866742 1571.08899731 23.70995709 1571.01098633 33.95776367 C1571.04095703 35.29097656 1571.04095703 35.29097656 1571.0715332 36.65112305 C1571.05747895 56.98762823 1563.56977594 76.59246704 1557.418396 95.71456909 C1556.18557605 99.55596079 1554.96562844 103.40143201 1553.74536133 107.24682617 C1553.24176054 108.8335267 1552.73815947 110.42022714 1552.23455811 112.00692749 C1551.98312798 112.79922131 1551.73169785 113.59151512 1551.47264862 114.40781784 C1550.70277244 116.83214948 1549.93152955 119.25604271 1549.15997314 121.67984009 C1544.33520321 136.84442375 1539.62258345 152.04284567 1534.93035889 167.24887085 C1532.64876132 174.64266389 1530.36219369 182.03491861 1528.07348633 189.42651367 C1527.84650936 190.15958426 1527.61953239 190.89265484 1527.38567734 191.64793968 C1521.94123588 209.22575314 1516.41495078 226.77768593 1510.88554001 244.32891464 C1503.73758225 267.01872985 1496.66026452 289.72936753 1489.63598633 312.45776367 C1482.10812749 336.81543735 1474.49996325 361.14652057 1466.82348633 385.45776367 C1460.06607948 406.85945109 1453.33593087 428.26847859 1446.69848633 449.70776367 C1439.67072651 472.40620162 1432.60164068 495.09140512 1425.51098633 517.77026367 C1424.97813645 519.47466954 1424.44528937 521.17907628 1423.91244507 522.88348389 C1421.21393929 531.51498261 1418.51494938 540.14632987 1415.81567383 548.77758789 C1410.80614806 564.79617851 1405.7984514 580.81534084 1400.79170609 596.83480072 C1400.27066578 598.50190259 1399.74961626 600.16900159 1399.22855759 601.83609772 C1391.33158055 627.10210002 1383.44770381 652.37215964 1375.57348633 677.64526367 C1367.43921154 703.75304813 1359.29391828 729.85736132 1351.13598633 755.95776367 C1350.8774651 756.78488987 1350.61894386 757.61201607 1350.35258865 758.4642067 C1346.16463977 771.86327368 1341.97588538 785.26208883 1337.78703308 798.66087341 C1333.86130138 811.21805053 1329.93586045 823.77531848 1326.01098633 836.33276367 C1325.75238453 837.16013157 1325.49378273 837.98749947 1325.22734451 838.83993912 C1317.33072715 864.10464694 1309.44730436 889.37344172 1301.57348633 914.64526367 C1292.40946081 944.05813812 1283.23113329 973.46651365 1274.03662109 1002.86987305 C1272.9994063 1006.18692282 1271.96222078 1009.50398175 1270.92504883 1012.82104492 C1270.6677619 1013.64386082 1270.41047497 1014.46667671 1270.14539146 1015.31442642 C1266.28475437 1027.66166389 1262.43201451 1040.01134757 1258.58321571 1052.36227989 C1256.88237777 1057.81941353 1255.18028642 1063.27615638 1253.4781599 1068.73288822 C1252.12757961 1073.06303943 1250.7778367 1077.39344756 1249.4302063 1081.72451782 C1239.90717346 1112.32691876 1239.90717346 1112.32691876 1235.11254883 1126.87182617 C1234.80880844 1127.80256958 1234.50506805 1128.73331299 1234.19212341 1129.69226074 C1230.16723244 1141.75533942 1224.56775622 1153.18943682 1216.57348633 1163.14526367 C1216.07848633 1163.7769043 1215.58348633 1164.40854492 1215.07348633 1165.05932617 C1207.8084773 1173.30511142 1197.073439 1177.13864619 1186.63598633 1179.52026367 C1185.95818115 1179.6758374 1185.28037598 1179.83141113 1184.58203125 1179.99169922 C1168.48837474 1183.26660384 1151.51335393 1182.30856136 1135.19458008 1182.31323242 C1133.2080152 1182.31563688 1131.22145032 1182.31804372 1129.23488575 1182.32069284 C1122.99870965 1182.32878399 1116.76254794 1182.33128208 1110.52636719 1182.33056641 C1104.15932704 1182.32996749 1097.79237211 1182.34049454 1091.42535347 1182.35631007 C1085.9020313 1182.36952531 1080.3787365 1182.37474451 1074.85539871 1182.374111 C1071.58188827 1182.37385999 1068.30846912 1182.37745554 1065.03497124 1182.38728905 C1005.61991055 1182.5490536 1005.61991055 1182.5490536 987.38598633 1165.64526367 C972.86552613 1150.18281159 967.48768412 1128.34519781 962.70239258 1108.24291992 C962.26419095 1106.43948741 961.82501175 1104.6362922 961.38494873 1102.83331299 C960.20295573 1097.97819246 959.03496347 1093.11980443 957.86966324 1088.26065445 C956.61598908 1083.04401176 955.34901639 1077.83059683 954.08398438 1072.61669922 C951.15704544 1060.54060634 948.25061184 1048.45962781 945.34957886 1036.37728882 C944.59194836 1033.22214851 943.83389446 1030.06711026 943.07568359 1026.91210938 C938.9313053 1009.66620859 934.79140454 992.41923334 930.66227055 975.16967583 C922.67100013 941.787775 914.5800213 908.43075634 906.44848633 875.08276367 C905.85069309 872.63099277 905.25290459 870.17922072 904.65512085 867.72744751 C904.36000453 866.51705401 904.06488821 865.30666052 903.76082897 864.05958843 C902.28681716 858.01395392 900.81291007 851.96829388 899.33911133 845.92260742 C899.05057596 844.73906237 898.7620406 843.55551731 898.46476173 842.33610725 C892.68177597 818.61247744 886.93173669 794.88095714 881.19848633 771.14526367 C880.975583 770.22249886 880.75267967 769.29973404 880.5230217 768.34900665 C878.51907408 760.05297183 876.51559951 751.75682284 874.51280212 743.46051025 C871.45867352 730.80925835 868.4018616 718.15865754 865.34301758 705.50854492 C865.12532526 704.6082468 864.90763294 703.70794868 864.68334389 702.7803688 C863.79706543 699.11506143 862.91077095 695.44975793 862.02445316 691.78446007 C859.52742719 681.45819785 857.03082941 671.13183214 854.53442383 660.80541992 C854.30084356 659.83921597 854.0672633 658.87301201 853.82660484 657.87752914 C849.73320688 640.94493155 845.64145788 624.01193569 841.55004883 607.07885742 C839.07873543 596.85098299 836.60738532 586.62311743 834.13598633 576.39526367 C833.82626263 575.11347355 833.51653893 573.83168343 833.19742966 572.51105118 C824.37817373 536.01299564 815.55084141 499.5169096 806.71188354 463.02362061 C800.80762805 438.64648188 794.90984001 414.26778651 789.01879883 389.88745117 C788.69119535 388.53167466 788.3635917 387.17589819 788.03598785 385.82012177 C784.82721544 372.54062499 781.61887434 359.26102412 778.41137314 345.98122025 C771.82120014 318.69708236 765.22192452 291.41526974 758.57348633 264.14526367 C757.07546055 266.93201609 756.11329379 269.52656545 755.38006592 272.60083008 C755.16515283 273.49126416 754.95023973 274.38169825 754.72881413 275.29911518 C754.38460753 276.75823212 754.38460753 276.75823212 754.03344727 278.24682617 C753.78516143 279.2818159 753.53687559 280.31680563 753.28106594 281.38315868 C752.45198466 284.84442642 751.62994537 288.30732792 750.80786133 291.77026367 C750.221404 294.2247379 749.63450608 296.67910689 749.04719543 299.13337708 C747.79102969 304.38686717 746.5378428 309.64105338 745.28738403 314.89590454 C743.4780462 322.49926723 741.66317675 330.10130107 739.84685194 337.70299733 C737.00552361 349.59491356 734.16789902 361.48770944 731.33276367 373.38110352 C728.0717825 387.06054133 724.80366185 400.73826212 721.53051758 414.41479492 C721.06869361 416.34463466 720.60687109 418.27447475 720.14505005 420.20431519 C719.46994937 423.02535983 718.79484034 425.84640248 718.11969566 428.6674366 C715.6869956 438.83276081 713.25713149 448.9987626 710.82739258 459.16479492 C709.95517362 462.8140496 709.08293911 466.46330055 708.21069336 470.11254883 C707.88645669 471.46907153 707.88645669 471.46907153 707.55566978 472.85299873 C705.07142116 483.24616019 702.58617508 493.6390831 700.10083008 504.03198242 C699.87313997 504.98410929 699.64544987 505.93623615 699.41086006 506.91721535 C698.25909706 511.73349915 697.10731968 516.54977952 695.95553589 521.36605835 C693.89045785 530.00138246 691.82550665 538.63673689 689.76054573 547.272089 C688.61486444 552.06314847 687.46917497 556.85420597 686.32348633 561.64526367 C685.86515296 563.56193033 685.40681962 565.478597 684.94848633 567.39526367 C682.19848161 578.89528338 682.19848161 578.89528338 681.5109911 581.77024364 C681.05264182 583.68697706 680.59429259 585.60371048 680.13594341 587.52044392 C678.9903545 592.31108949 677.84476467 597.10173485 676.69917297 601.89237976 C674.63375338 610.52957256 672.56834026 619.1667669 670.50296116 627.80396938 C669.35329697 632.61174564 668.20362744 637.41952062 667.05395508 642.22729492 C666.82647268 643.17859598 666.59899029 644.12989704 666.36461449 645.11002541 C663.21448573 658.28339816 660.06406495 671.45670104 656.9134407 684.62995529 C654.90421843 693.03087448 652.89507726 701.43181307 650.88598633 709.83276367 C650.66339142 710.76353729 650.44079651 711.69431091 650.2114563 712.65328979 C642.16103222 746.31622186 634.11651813 779.98056471 626.07348633 813.64526367 C617.80581974 848.25018798 609.53628002 882.85466243 601.26098633 917.45776367 C601.03927513 918.38485516 600.81756393 919.31194664 600.58913422 920.26713181 C597.47854734 933.27410548 594.36773943 946.28102628 591.25687408 959.28793335 C590.32529621 963.18297784 589.39372197 967.0780232 588.46215439 970.97307014 C587.9860562 972.96371619 587.509954 974.95436128 587.03384781 976.94500542 C585.83965508 981.93808813 584.64556008 986.93119419 583.45166016 991.92434692 C581.34201719 1000.74706091 579.23194019 1009.56966892 577.11862564 1018.39150429 C575.9898509 1023.10358791 574.86159096 1027.81579467 573.73364258 1032.52807617 C573.40461441 1033.90263285 573.40461441 1033.90263285 573.06893921 1035.30495834 C570.16879654 1047.42504237 567.29409362 1059.55083872 564.44442749 1071.68288612 C563.35458151 1076.31877922 562.26003593 1080.95356557 561.16552353 1085.58835888 C560.33124308 1089.12375015 559.50050515 1092.65988555 558.67901611 1096.19827271 C544.18046177 1158.62485924 544.18046177 1158.62485924 522.57348633 1172.14526367 C521.99469727 1172.51135742 521.4159082 1172.87745117 520.81958008 1173.25463867 C500.41381834 1184.71359775 472.82738833 1182.45142962 450.35473633 1182.41088867 C447.6773659 1182.4122404 445.0000009 1182.4141835 442.32263184 1182.41668701 C436.7455849 1182.42029354 431.16859148 1182.41561592 425.59155273 1182.40600586 C419.20618222 1182.39512778 412.82093958 1182.39865574 406.43557215 1182.40965867 C400.88581094 1182.41882738 395.33608752 1182.41997072 389.78632116 1182.41478133 C386.50120498 1182.41171353 383.2161597 1182.41192792 379.93104553 1182.41785431 C367.88018698 1182.43483203 355.88745219 1182.38196065 343.88012695 1181.26538086 C342.6546175 1181.15157263 342.6546175 1181.15157263 341.40435028 1181.03546524 C325.63148275 1179.35961576 310.84035526 1174.34509337 300.46801758 1161.75463867 C285.4303877 1141.04301649 279.31537254 1115.26767122 272.09680176 1091.10437012 C270.77815117 1086.6979748 269.44879336 1082.29481168 268.12036133 1077.89135742 C265.95621654 1070.71403503 263.79715562 1063.53520471 261.6418457 1056.35522461 C258.90878534 1047.25242883 256.16040307 1038.15435376 253.40161133 1029.05932617 C253.19951994 1028.39303696 252.99742855 1027.72674774 252.78921318 1027.04026794 C251.98286736 1024.38199246 251.17640221 1021.72375324 250.36971188 1019.06558228 C248.96102137 1014.42363196 247.55400564 1009.78117656 246.14794922 1005.13842773 C241.70680714 990.47455801 237.25912258 975.81269113 232.80395508 961.15307617 C232.55789898 960.34343351 232.31184288 959.53379086 232.05833054 958.69961357 C230.80054343 954.56098521 229.54268143 950.42237962 228.28479004 946.28378296 C219.78095516 918.30516104 211.29080904 890.3224584 202.82348633 862.33276367 C202.46521633 861.14848848 202.46521633 861.14848848 202.09970856 859.94028854 C200.1928292 853.63700909 198.28601474 847.33371 196.37929535 841.03038216 C191.46868204 824.79668425 186.55413203 808.56418114 181.63598633 792.33276367 C181.43501972 791.66948689 181.23405312 791.0062101 181.02699661 790.32283401 C175.95809737 773.59362326 170.88268701 756.86639928 165.80004883 740.14135742 C165.55419226 739.33233412 165.30833569 738.52331081 165.05502892 737.68977165 C163.03620588 731.0466853 161.01725985 724.40363632 158.99821854 717.7606163 C151.1004541 691.77528558 143.22257853 665.78400745 135.36053085 639.78784943 C127.78356637 614.73461643 120.18586792 589.68775722 112.57348633 564.64526367 C104.64004214 538.54616044 96.72196108 512.44247182 88.82348633 486.33276367 C88.34089193 484.73751819 87.85829712 483.14227282 87.3757019 481.54702759 C85.71020066 476.04155132 84.04473244 470.53606507 82.37934685 465.03055382 C77.46871655 448.79679864 72.55414935 432.56423831 67.63598633 416.33276367 C67.43501972 415.66948689 67.23405312 415.0062101 67.02699661 414.32283401 C61.95809737 397.59362326 56.88268701 380.86639928 51.80004883 364.14135742 C51.55419226 363.33233412 51.30833569 362.52331081 51.05502892 361.68977165 C49.03620588 355.0466853 47.01725985 348.40363632 44.99821854 341.7606163 C36.86217096 314.99128319 28.74733369 288.21560348 20.64907837 261.43481445 C14.53219317 241.20674555 8.39966018 220.98352347 2.24904346 200.76568508 C-2.24524143 185.9921979 -6.73211646 171.21646708 -11.21395206 156.43919849 C-12.44813634 152.36997957 -13.68276194 148.30089565 -14.918396 144.2321167 C-17.59736012 135.41014309 -20.27199839 126.58689483 -22.93503189 117.7600975 C-24.05270498 114.05571254 -25.17228229 110.35193902 -26.2979126 106.64996338 C-30.60062062 92.49302166 -34.76522986 78.31767801 -38.39135742 63.96948242 C-38.81282799 62.31297417 -38.81282799 62.31297417 -39.24281311 60.6230011 C-42.83310574 46.05288352 -47.31633534 27.75551549 -39.23901367 13.83276367 C-34.72525959 7.39208533 -29.13934692 2.97788559 -21.42651367 1.14526367 C-14.27765662 0.00951765 -7.22818253 -0.00262614 0 0 Z " fill="#252F3E" transform="translate(1295.426513671875,33.854736328125)"/>
<path d="M0 0 C8.86885231 5.28409257 17.87141685 10.32893864 26.87133789 15.38549805 C29.95456409 17.11812269 33.03577432 18.85429644 36.11694336 20.59057617 C49.32399813 28.02154719 62.60361905 35.30637252 75.94506836 42.49291992 C78.95513734 44.1179637 81.96053235 45.7513421 84.96459961 47.38745117 C97.67995684 54.30870272 110.46739439 61.07440785 123.31665039 67.7434082 C126.38836254 69.34317469 129.45039451 70.96063514 132.51098633 72.58154297 C167.85054944 91.28394831 203.51207396 109.52880928 239.68334961 126.57104492 C242.85225411 128.06789524 246.01706702 129.5730561 249.1809082 131.08056641 C300.59776913 155.57970572 352.56037611 178.7270929 404.93334961 201.10620117 C405.73742249 201.44999817 406.54149536 201.79379517 407.36993408 202.14801025 C454.54749539 222.30043897 502.36421135 241.25516568 550.43261719 259.17297363 C553.04262582 260.14698105 555.65119598 261.12476623 558.25952148 262.10327148 C589.66295565 273.87668046 621.24693005 285.11881012 652.93334961 296.10620117 C654.49028534 296.6463385 654.49028534 296.6463385 656.07867432 297.1973877 C728.34921909 322.24688525 801.33973362 345.02918821 1823.93334961 514.23120117 C1824.99137787 514.26990326 1826.04940613 514.30860535 1827.13949585 514.34848022 C1835.06988086 514.63408524 1843.00120535 514.87526962 1850.93334961 515.10620117 C1852.36502451 515.14995247 1853.79669552 515.19383137 1855.22836304 515.23782349 C1889.63743512 516.28070164 1924.05007623 516.30881621 1958.47140884 516.29454994 C1960.76433566 516.29369427 1963.05726226 516.29324669 1965.35018921 516.29289246 C2009.8640606 516.28442446 2054.33458758 516.17266651 2098.81394958 514.19897461 C2101.82213267 514.06729608 2104.83056761 513.94186312 2107.83900547 513.81616116 C2190.57258634 510.35440906 2273.19054715 504.43417701 2691.18228912 445.22286701 C2695.4106835 444.40069866 2699.64031155 443.58523094 2703.87084961 442.77416992 C2794.28313538 425.41761858 2884.103172 404.26932145 2972.93334961 380.10620117 C2974.12847168 379.78131714 2975.32359375 379.45643311 2976.55493164 379.1217041 C3036.43066204 362.82202369 3095.86547393 345.1270209 3154.93334961 326.10620117 C3156.08407959 325.73601868 3157.23480957 325.36583618 3158.42041016 324.98443604 C3258.02991638 292.92182087 3356.14429646 256.66817281 3452.71679688 216.37133789 C3479.03005272 205.40785148 3504.55985991 195.12345703 3532.93334961 205.10620117 C3537.52287361 207.09565149 3541.72681852 209.4052864 3545.93334961 212.10620117 C3546.75319336 212.62956055 3547.57303711 213.15291992 3548.41772461 213.69213867 C3559.50852483 221.5321871 3567.03219362 233.90863479 3569.93334961 247.10620117 C3571.57846473 265.61998635 3567.25125185 281.04180151 3555.68334961 295.73120117 C3546.86935146 306.0457643 3536.3196236 313.62084004 3525.32104492 321.40795898 C3522.98102124 323.07229484 3520.6541363 324.7532477 3518.33178711 326.44213867 C3517.57317383 326.99353516 3516.81456055 327.54493164 3516.03295898 328.11303711 C3514.62993462 329.13358644 3513.22750776 330.15495821 3511.82592773 331.17749023 C3497.41458159 341.62119961 3482.55793657 351.46305188 3467.80834961 361.41870117 C3466.38486206 362.37956131 3466.38486206 362.37956131 3464.93261719 363.35983276 C3452.12836459 371.99617214 3439.29332201 380.54895228 3426.17651367 388.70581055 C3423.90694602 390.12268473 3421.64924603 391.55683092 3419.39428711 392.99682617 C3380.14414914 418.0367197 3339.77162504 441.57459213 3298.75219727 463.58569336 C3296.01725586 465.0609415 3293.29194031 466.5523088 3290.57006836 468.05151367 C3277.33730318 475.33847147 3263.95904261 482.32327517 3250.52323914 489.22579956 C3246.29552272 491.39956705 3242.07888456 493.59341878 3237.86694336 495.79760742 C3219.0725976 505.61860506 3200.06771796 514.96662502 3180.93334961 524.10620117 C3179.91017639 524.59506805 3179.91017639 524.59506805 3178.86633301 525.09381104 C3159.27650648 534.44444088 3139.51782003 543.38989245 3119.65319824 552.14012146 C3114.58457568 554.37361911 3109.52461857 556.62579843 3104.46850586 558.88745117 C3083.90989763 568.06820313 3063.15681984 576.720345 3042.28234863 585.15631104 C3040.01327796 586.07387968 3037.74514285 586.99372064 3035.47729492 587.91430664 C2937.3150041 627.73656477 2836.87587636 661.66630677 2646.93334961 714.10620117 C2645.32771149 714.51388733 2645.32771149 714.51388733 2643.68963623 714.92980957 C2563.84157962 735.193742 2483.09404925 751.89989052 2397.93334961 766.10620117 C2396.64553589 766.32105164 2395.35772217 766.5359021 2394.03088379 766.75726318 C2317.40583641 779.51531078 2240.35549565 789.3839772 2021.93334961 805.10620117 C2020.88304754 805.14673111 2019.83274548 805.18726105 2018.75061607 805.22901917 C1998.83052821 805.98305138 1978.93997517 806.26997936 1959.00694633 806.27345824 C1956.64427011 806.27418556 1954.28159919 806.27635032 1951.91892433 806.27895546 C1943.55906447 806.28813341 1935.1992202 806.29230122 1926.83935547 806.29150391 C1920.07533367 806.29097498 1913.31137024 806.29795501 1906.54736328 806.31201172 C1864.62793712 806.39706438 1822.81855622 806.0114886 1780.93334961 804.10620117 C1780.04001293 804.06619617 1779.14667625 804.02619118 1778.22626877 803.98497391 C1768.10386901 803.53040749 1757.98682498 803.00950201 1747.87168503 802.41476059 C1745.71297128 802.28810516 1743.55414441 802.16352148 1741.39529419 802.03921509 C1660.36961111 797.35681377 1579.66079726 789.4446574 1430.93334961 768.10620117 C1429.65995728 767.90184448 1428.38656494 767.69748779 1427.07458496 767.48693848 C1344.12692449 754.14988274 1261.84157503 736.80706507 775.93334961 582.10620117 C774.92767944 581.68425476 773.92200928 581.26230835 772.88586426 580.82757568 C742.42301593 568.03549816 712.12706158 554.92544922 682.11395264 541.10955811 C680.04365605 540.15695627 677.97235193 539.20658774 675.90063477 538.25708008 C660.43441723 531.16506285 645.08366752 523.8470179 629.77709961 516.41870117 C625.66030081 514.42171258 621.53846091 512.43734275 617.40209961 510.48120117 C604.74803532 504.49615497 592.20673411 498.29664491 579.68334961 492.04370117 C578.84589203 491.62626648 578.00843445 491.20883179 577.14559937 490.77874756 C565.75254581 485.09612071 554.44626948 479.26722454 543.1973877 473.30453491 C540.30990223 471.77621643 537.41749654 470.25737384 534.52474976 468.73904419 C520.2663345 461.25274207 506.04763278 453.72616499 492.06884766 445.72583008 C485.43364725 441.93206651 478.73171314 438.28030058 471.99584961 434.66870117 C460.84883574 428.67596409 449.92906317 422.33443997 439.02368164 415.9152832 C434.78614721 413.43462827 430.52765581 410.99117402 426.26879883 408.54736328 C395.37604497 390.81502396 365.07156745 372.08731392 334.93334961 353.10620117 C334.0095752 352.52563965 333.08580078 351.94507813 332.1340332 351.34692383 C312.14640752 338.75952453 292.55120191 325.5793684 272.92260742 312.44262695 C267.28078815 308.66777054 261.63144891 304.90421118 255.97889709 301.14544678 C241.7996227 291.70539881 227.87078599 281.89795704 213.93334961 272.10620117 C213.18907715 271.58380859 212.44480469 271.06141602 211.67797852 270.52319336 C189.74429358 255.12157671 168.06609849 239.37195322 146.78540039 223.07885742 C140.90345791 218.58327169 134.96985344 214.16602745 128.99584961 209.79370117 C121.74637617 204.48247825 114.63224484 199.03112541 107.6027832 193.43286133 C104.72309276 191.14443812 101.82715618 188.87672633 98.93334961 186.60620117 C97.76403901 185.68698092 96.5947681 184.76771018 95.42553711 183.84838867 C93.12106859 182.03745943 90.81360374 180.23045554 88.50366211 178.42651367 C81.57267285 173.00774025 74.71318507 167.51003942 67.89916992 161.94482422 C63.57757948 158.42165231 59.21094514 154.96484216 54.80834961 151.54370117 C49.39543165 147.32861701 44.16139137 142.93691321 38.97412109 138.44799805 C34.61281849 134.67486718 30.17412739 131.00952346 25.69897461 127.37182617 C19.17902287 122.03062277 12.77245521 116.55117666 6.38256836 111.05541992 C5.79241943 110.54785156 5.20227051 110.0402832 4.59423828 109.51733398 C3.40541211 108.49476471 2.21677219 107.47197886 1.02832031 106.44897461 C-2.49949392 103.42133981 -6.07178204 100.46143988 -9.69165039 97.54370117 C-14.15556059 93.92413762 -18.39135593 90.09650641 -22.59545898 86.18310547 C-25.74061415 83.27214246 -28.96504746 80.52544183 -32.31665039 77.85620117 C-37.88586519 73.37819682 -43.05848418 68.52236551 -48.23364258 63.59741211 C-52.15903365 59.86581868 -56.14899921 56.2351862 -60.2434082 52.68945312 C-68.6616283 45.37930887 -77.03809251 35.65246787 -78.28369141 24.09179688 C-78.9099761 12.54218127 -78.25142684 4.07736555 -70.81665039 -5.14379883 C-50.0114295 -27.50829751 -21.47452336 -12.79705285 0 0 Z " fill="#FF9900" transform="translate(78.066650390625,1593.893798828125)"/>
<path d="M0 0 C4.67770922 0.01709012 9.35490569 0.00689508 14.03259754 -0.01032829 C109.5130791 -0.30709449 207.84826534 14.09212481 343.78173828 99.27783203 C345.86411689 101.16487865 347.97880017 103.00169561 350.11376953 104.82861328 C357.68904359 111.43976155 364.67286952 118.6770121 371.11376953 126.39111328 C371.77602539 127.17470215 371.77602539 127.17470215 372.45166016 127.97412109 C386.36371927 144.48443502 398.39946764 161.92446167 408.74072266 180.87988281 C410.02933738 183.23669133 411.34263186 185.57800785 412.66064453 187.91845703 C457.59806882 269.00506823 464.23842594 365.6371288 464.270401 462.89226413 C464.27226602 468.71797481 464.2798865 474.54367838 464.28688049 480.36938477 C464.29833004 490.43851251 464.30661373 500.50763864 464.31299973 510.57677078 C464.32296333 525.84774719 464.34207373 541.11870661 464.36330299 556.38967059 C464.37182705 562.54354979 464.38009597 568.69742934 464.38840675 574.85130882 C464.38979427 575.8764293 464.38979427 575.8764293 464.39120981 576.92225929 C464.41313154 593.13762389 464.43295483 609.35299076 464.45166016 625.56835938 C464.45288968 626.63058071 464.45288968 626.63058071 464.45414403 627.71426105 C464.47321821 644.22674157 464.49018653 660.73922195 464.50250244 677.25170898 C464.50303211 677.96167018 464.50356178 678.67163137 464.50410749 679.40310654 C464.50835958 685.1265856 464.51253557 690.85006472 464.51669229 696.57354385 C464.53395405 720.26084058 464.56124312 743.94810838 464.59985267 767.63538026 C464.62460201 782.84887764 464.640433 798.06233423 464.64246906 813.27585368 C464.64459413 823.25468525 464.65765292 833.23346645 464.67894839 843.21227534 C464.69085571 848.9482162 464.69821139 854.68405716 464.69223595 860.42000961 C464.62269192 937.43988213 480.86862367 999.96332155 515.36376953 1068.95361328 C515.76861572 1069.76330566 516.17346191 1070.57299805 516.59057617 1071.40722656 C518.50241341 1075.21844353 520.43432628 1079.01711904 522.40673828 1082.79736328 C529.25441836 1095.99182267 533.67329554 1108.35524693 530.45751953 1123.47705078 C528.2812157 1130.17481345 524.74366946 1135.16681971 520.11376953 1140.39111328 C519.46931885 1141.1189502 518.82486816 1141.84678711 518.16088867 1142.59667969 C510.61306071 1150.6044652 501.86149237 1156.24817313 492.67626953 1162.20361328 C490.09145155 1163.89833185 487.5094619 1165.59730326 484.92758179 1167.29649353 C483.12477597 1168.48262333 481.32107185 1169.66738883 479.51651001 1170.85084534 C472.8122668 1175.25238915 466.15416532 1179.71857998 459.51611328 1184.21923828 C458.56031876 1184.86692673 457.60452423 1185.51461517 456.61976624 1186.18193054 C452.87733574 1188.71931404 449.13578612 1191.25796304 445.39797974 1193.80215454 C400.43484918 1224.39251633 400.43484918 1224.39251633 374.49658203 1219.74267578 C351.44658176 1213.27540952 334.38074154 1191.54854116 320.45507812 1173.15625 C319.1534243 1171.4432982 317.83207364 1169.74715141 316.50830078 1168.05126953 C302.60101339 1149.95525808 291.78219611 1129.50453938 281.11376953 1109.39111328 C280.61248535 1108.45025879 280.11120117 1107.5094043 279.59472656 1106.54003906 C273.98105933 1095.98392329 268.52973083 1085.3616506 263.36376953 1074.57861328 C262.93306152 1073.68263428 262.50235352 1072.78665527 262.05859375 1071.86352539 C261.66945801 1071.04118408 261.28032227 1070.21884277 260.87939453 1069.37158203 C260.53682617 1068.64865967 260.19425781 1067.9257373 259.84130859 1067.1809082 C259.11376953 1065.39111328 259.11376953 1065.39111328 259.11376953 1063.39111328 C258.45376953 1063.39111328 257.79376953 1063.39111328 257.11376953 1063.39111328 C256.89849609 1063.92478516 256.68322266 1064.45845703 256.46142578 1065.00830078 C254.61669273 1068.2700027 252.11699815 1070.81872649 249.55126953 1073.51611328 C248.54915161 1074.58044989 247.5478753 1075.64557943 246.54736328 1076.71142578 C246.00378174 1077.28884521 245.4602002 1077.86626465 244.90014648 1078.46118164 C242.89983338 1080.62224152 240.9503404 1082.82461048 238.99658203 1085.02783203 C233.9149138 1090.68874947 228.58102433 1096.07516601 223.19311523 1101.44213867 C221.54635549 1103.08351124 219.90504858 1104.73020147 218.26416016 1106.37744141 C212.7193771 1111.92608937 207.0999978 1117.31627743 201.11376953 1122.39111328 C199.92185467 1123.43592626 198.73173806 1124.48279434 197.54345703 1125.53173828 C189.28034033 1132.77635104 180.86659538 1139.74626332 172.11376953 1146.39111328 C171.40768555 1146.92849121 170.70160156 1147.46586914 169.97412109 1148.01953125 C158.0484483 1157.05530365 145.78874043 1165.44267992 133.11376953 1173.39111328 C132.45989258 1173.80167969 131.80601562 1174.21224609 131.13232422 1174.63525391 C63.40861736 1216.85916886 -13.51830461 1239.62775183 -92.88623047 1245.39111328 C-93.6284082 1245.44895996 -94.37058594 1245.50680664 -95.13525391 1245.56640625 C-166.85617863 1250.97839721 -240.62864535 1241.92933871 -306.88623047 1213.39111328 C-307.67384766 1213.05257324 -308.46146484 1212.7140332 -309.27294922 1212.36523438 C-325.93754044 1205.09844028 -342.09262617 1195.94744611 -356.88623047 1185.39111328 C-357.57894043 1184.8991748 -358.27165039 1184.40723633 -358.98535156 1183.90039062 C-375.18201278 1172.34888683 -389.66896519 1159.77063961 -403.76123047 1145.76611328 C-404.56321869 1144.97229752 -404.56321869 1144.97229752 -405.38140869 1144.16244507 C-412.35188729 1137.24490105 -418.82588185 1130.13743502 -424.88623047 1122.39111328 C-425.423125 1121.7135498 -425.96001953 1121.03598633 -426.51318359 1120.33789062 C-472.69743208 1061.52271513 -495.79815702 985.57173169 -496.08935547 911.17236328 C-496.09636978 909.96327301 -496.10338409 908.75418274 -496.11061096 907.50845337 C-496.12799134 903.63596822 -496.13446165 899.76363598 -496.13623047 895.89111328 C-496.13667233 895.23122154 -496.13711418 894.5713298 -496.13756943 893.89144135 C-496.14448074 874.2053994 -495.88904256 854.88156093 -492.88623047 835.39111328 C-492.71462402 834.21210449 -492.54301758 833.0330957 -492.36621094 831.81835938 C-482.38004146 764.253311 -454.22390371 701.14431572 -407.41748047 651.10986328 C-405.10103886 648.6218334 -402.86739896 646.080292 -400.63623047 643.51611328 C-359.77328133 598.06427681 -302.76315922 566.7427195 -245.88623047 546.39111328 C-245.02481445 546.07932129 -244.16339844 545.7675293 -243.27587891 545.44628906 C-162.27974077 516.34673571 -72.72767162 512.68639399 184.61376953 542.51611328 C185.82253754 542.757742 187.03130554 542.99937073 188.27670288 543.24832153 C206.95795404 546.99931848 225.54383854 551.12889408 244.11376953 555.39111328 C244.02883492 540.7233314 243.93335393 526.05564729 243.82624245 511.38801003 C243.77670802 504.5733105 243.73032566 497.75861956 243.69189453 490.94384766 C243.08835925 357.58203695 243.08835925 357.58203695 178.9387207 244.79638672 C167.71345835 234.00997498 154.74461094 225.80292316 141.11376953 218.39111328 C140.49469727 218.05015625 139.875625 217.70919922 139.23779297 217.35791016 C90.6115575 191.10026503 30.22894407 186.66529329 -23.88623047 185.39111328 C-24.76569336 185.36774902 -25.64515625 185.34438477 -26.55126953 185.3203125 C-104.19894249 183.46859445 -181.57341994 200.65089656 -263.88623047 227.39111328 C-264.64750244 227.64294373 -265.40877441 227.89477417 -266.19311523 228.15423584 C-289.31544125 235.82454177 -311.9729831 244.42065457 -334.44970703 253.81884766 C-382.75231372 273.89669479 -382.75231372 273.89669479 -400.88623047 266.89111328 C-408.65289755 262.69331017 -412.40852797 256.25977894 -415.15966797 248.10205078 C-416.77249876 242.08428427 -417.03922143 236.35372318 -417.04736328 230.16723633 C-417.05481064 228.80236839 -417.05481064 228.80236839 -417.06240845 227.40992737 C-417.0769774 224.40755443 -417.08382629 221.40523448 -417.08935547 218.40283203 C-417.09359653 216.85422454 -417.09359653 216.85422454 -417.09792328 215.27433205 C-417.11290124 209.80178193 -417.12213718 204.32925804 -417.12646484 198.85668945 C-417.13192135 193.24668899 -417.15589347 187.6369347 -417.1844368 182.02701092 C-417.203219 177.67795656 -417.20827718 173.32895939 -417.20980072 168.97986794 C-417.21279703 166.91454549 -417.22072111 164.84922329 -417.2339859 162.78394127 C-417.35277472 142.85255579 -416.98114472 121.93392549 -402.43212891 106.67895508 C-390.94042145 95.27895669 -376.19655205 88.54878289 -361.88623047 81.39111328 C-360.74734375 80.81176025 -360.74734375 80.81176025 -359.58544922 80.22070312 C-331.61230148 66.0330236 -301.60204857 55.29638598 -271.88623047 45.39111328 C-271.197146 45.16141846 -270.50806152 44.93172363 -269.7980957 44.69506836 C-190.05548879 18.21376486 -106.55788169 0.98906911 0 0 Z M-183.88623047 717.39111328 C-184.47307617 717.77734863 -185.05992187 718.16358398 -185.66455078 718.56152344 C-194.24938335 724.27616812 -201.9212529 730.69369009 -209.31591797 737.87207031 C-210.85612169 739.36198753 -212.41617557 740.8283822 -213.97998047 742.29345703 C-248.46952073 775.08615613 -263.5698278 824.42584566 -264.99560547 870.9609375 C-266.09603723 924.94399321 -257.16905987 979.97050082 -218.69873047 1020.51220703 C-194.30202891 1045.70921476 -162.16187222 1060.19072346 -128.01123047 1066.57861328 C-127.18703613 1066.73362305 -126.3628418 1066.88863281 -125.51367188 1067.04833984 C-109.42759342 1069.86808779 -93.38066784 1070.77207291 -77.07373047 1070.70361328 C-75.67383881 1070.70038055 -75.67383881 1070.70038055 -74.2456665 1070.69708252 C-20.00118124 1070.49755674 38.98649378 1059.48005309 88.01513672 1035.41992188 C90.32123114 1034.28940979 92.64287982 1033.19463012 94.96533203 1032.09814453 C153.80864077 1003.91965865 204.72592787 952.89548066 227.14794922 891.19580078 C236.97365732 862.66250082 240.89673379 832.36987436 243.11376953 802.39111328 C243.21165771 801.08207031 243.3095459 799.77302734 243.41040039 798.42431641 C244.56001024 780.91179893 244.22771214 763.32725612 244.18243408 745.78710938 C244.17206125 741.33480305 244.16760705 736.8824908 244.16259766 732.43017578 C244.15198837 723.75047231 244.13500314 715.07079725 244.11376953 706.39111328 C236.88520403 703.93516198 229.50296036 702.37488245 222.05126953 700.76611328 C220.84653488 700.50583344 220.84653488 700.50583344 219.61746216 700.24029541 C177.2753899 691.14299165 134.50511169 684.54658086 91.42626953 680.14111328 C90.3134108 680.02527893 90.3134108 680.02527893 89.17807007 679.90710449 C61.62237821 677.07668735 34.07813329 676.03183924 6.39355469 676.07543945 C3.20688798 676.0800794 0.02060233 676.07308414 -3.16601562 676.05493164 C-64.57862984 675.70912202 -131.44936109 682.61640755 -183.88623047 717.39111328 Z " fill="#252F3E" transform="translate(663.88623046875,-0.39111328125)"/>
<path d="M0 0 C3.93056904 0.01706073 7.86052659 0.00690868 11.79107475 -0.01032162 C40.81599115 -0.11783646 69.71419471 1.67892375 98.47363281 5.70361328 C99.61842606 5.85943375 99.61842606 5.85943375 100.78634644 6.0184021 C152.52146556 13.06394354 203.71658103 24.09327971 253.34863281 40.39111328 C255.03206787 40.94001221 255.03206787 40.94001221 256.74951172 41.5 C291.29900377 52.8428902 336.92489425 69.05575099 355.84082031 103.07470703 C361.20328338 114.25972615 363.49204795 125.72905361 363.50976562 138.07348633 C363.51473053 138.91354721 363.51969543 139.75360809 363.52481079 140.61912537 C363.53933702 143.38036947 363.54621888 146.1415561 363.55175781 148.90283203 C363.55458519 149.85230021 363.55741257 150.80176838 363.56032562 151.78000832 C363.57528063 156.80589701 363.58453303 161.83175728 363.58886719 166.85766602 C363.59434236 172.02085867 363.61836095 177.18378638 363.64683914 182.34689617 C363.66556301 186.34231806 363.67067632 190.33767739 363.67220306 194.33313942 C363.67520879 196.2351304 363.68316603 198.13712083 363.69638824 200.03906822 C363.88376818 229.0672221 363.88376818 229.0672221 354.59472656 239.32861328 C347.24475648 246.23269477 340.63216784 247.91809116 330.66674805 247.80444336 C310.6193855 247.04228196 291.00684947 236.36495247 272.97363281 228.39111328 C211.50658621 201.35090026 144.20156258 186.92076683 77.34863281 182.39111328 C76.17171875 182.3042627 74.99480469 182.21741211 73.78222656 182.12792969 C58.53400616 181.08582072 43.25015302 181.14397539 27.97363281 181.14111328 C27.25214176 181.14081871 26.53065071 181.14052414 25.7872963 181.14022064 C3.20429424 181.13873362 -19.23778193 181.34691056 -41.65136719 184.39111328 C-42.38647522 184.49057251 -43.12158325 184.59003174 -43.87896729 184.69250488 C-64.18033553 187.48116913 -84.04739082 191.32556871 -103.65136719 197.39111328 C-104.52035645 197.65472656 -105.3893457 197.91833984 -106.28466797 198.18994141 C-144.27707389 209.90701964 -177.91857208 230.63620856 -197.59277344 265.86767578 C-214.60660389 298.42545932 -218.00945226 340.25774268 -207.39428711 375.31542969 C-193.47078568 418.6408229 -159.50500943 444.84517708 -120.47021484 465.03662109 C-102.96668175 473.92437074 -84.98827847 481.43753728 -66.65136719 488.39111328 C-65.60722656 488.7879834 -64.56308594 489.18485352 -63.48730469 489.59375 C-24.01619788 504.44003678 16.58011091 516.51275334 56.74468994 529.32333374 C71.63750142 534.07567417 86.51693513 538.86976001 101.39746094 543.66040039 C112.96726267 547.3838709 124.54116933 551.09347528 136.12597656 554.77001953 C177.11354459 567.78403402 216.85655968 582.09644491 255.34863281 601.39111328 C256.19876953 601.81489258 257.04890625 602.23867188 257.92480469 602.67529297 C285.26721411 616.39327682 311.36610536 633.96689904 333.69238281 654.92236328 C335.82412904 656.9036333 337.98653375 658.78318355 340.22363281 660.64111328 C352.18184622 671.08907613 362.03547413 683.60627988 371.34863281 696.39111328 C371.75919922 696.94976074 372.16976562 697.5084082 372.59277344 698.08398438 C410.99449265 750.63284461 429.18169639 814.09105913 428.72363281 878.76611328 C428.71765076 880.49477631 428.71765076 880.49477631 428.71154785 882.25836182 C428.64177327 899.49298079 428.0583696 916.34608804 425.34863281 933.39111328 C425.20409668 934.36918945 425.05956055 935.34726562 424.91064453 936.35498047 C416.65952199 991.85588669 394.05932551 1044.31543408 359.34863281 1088.39111328 C358.82124512 1089.06271484 358.29385742 1089.73431641 357.75048828 1090.42626953 C343.04168058 1109.06538383 326.71986746 1127.71410108 307.95019531 1142.34423828 C305.55730896 1144.22692965 303.26849548 1146.19708681 300.98266602 1148.20727539 C235.01979739 1205.76723082 143.35897082 1233.56108916 -17.85839844 1250.59423828 C-19.57948331 1250.60125678 -21.3005679 1250.60834362 -23.02165222 1250.61549377 C-28.50239425 1250.63493239 -33.98309418 1250.63992861 -39.46386719 1250.64111328 C-40.86351715 1250.64177607 -40.86351715 1250.64177607 -42.29144287 1250.64245224 C-69.36722229 1250.64918117 -96.30903522 1250.49530419 -123.26245117 1247.64111328 C-125.76934965 1247.37876642 -128.27743368 1247.13170587 -130.78613281 1246.88720703 C-200.37172345 1240.04078044 -269.83517711 1225.45686939 -335.77032471 1202.05847168 C-337.55481869 1201.42536687 -339.34108226 1200.7972564 -341.12744141 1200.16943359 C-423.2440015 1171.12594649 -423.2440015 1171.12594649 -439.51806641 1137.60595703 C-446.71488604 1121.46386764 -448.11838267 1105.18195459 -448.04980469 1087.76220703 C-448.05183308 1085.91528713 -448.05475082 1084.06836801 -448.0585022 1082.22145081 C-448.06288852 1078.37826807 -448.05661432 1074.53529657 -448.04248047 1070.69213867 C-448.02537873 1065.80857518 -448.0352598 1060.92550621 -448.05319786 1056.04196072 C-448.06412609 1052.23684578 -448.06054851 1048.43184484 -448.05281448 1044.62672615 C-448.05083798 1042.82770794 -448.05318011 1041.02867878 -448.06025314 1039.22967339 C-448.10747881 1023.85173818 -448.03537536 1007.89408178 -437.20996094 995.77783203 C-431.22473091 990.2492408 -423.91421387 988.84112339 -416.08886719 988.95361328 C-414.90345337 988.97041138 -414.90345337 988.97041138 -413.6940918 988.98754883 C-392.91282384 989.63389123 -372.97460596 1000.7715023 -354.24536133 1008.8894043 C-283.39289841 1039.56105603 -207.72822448 1058.63496689 -130.89404297 1066.17108154 C-129.39351261 1066.31830046 -127.89318573 1066.46760764 -126.39306641 1066.61895752 C-80.22721632 1071.25996238 -31.75593863 1072.26763857 14.34863281 1066.39111328 C15.03584412 1066.30390015 15.72305542 1066.21668701 16.43109131 1066.12683105 C76.26299754 1058.41964679 141.99690229 1039.73383296 180.58984375 989.78466797 C204.23648747 957.97891689 212.10411823 917.68707474 206.72412109 878.81640625 C203.07069466 855.21878717 193.75851718 833.64554645 178.34863281 815.39111328 C177.92211426 814.8795166 177.4955957 814.36791992 177.05615234 813.84082031 C170.03341572 805.50710236 162.16555552 798.76605902 153.34863281 792.39111328 C152.78756836 791.98183594 152.22650391 791.57255859 151.6484375 791.15087891 C119.17634752 767.74383552 80.31704535 753.21064742 42.57128906 740.72314453 C41.80387201 740.46830166 41.03645496 740.21345879 40.24578285 739.9508934 C23.51176495 734.39542061 6.71387611 729.04702202 -10.10593414 723.75796509 C-12.5202095 722.99838689 -14.93408159 722.23753963 -17.34783936 721.47631836 C-39.97592442 714.34053202 -62.62723748 707.28175387 -85.29589844 700.27603149 C-256.87693639 647.24676768 -256.87693639 647.24676768 -321.65136719 591.39111328 C-322.38484375 590.75689453 -323.11832031 590.12267578 -323.87402344 589.46923828 C-325.81178589 587.78958732 -327.7336588 586.0936079 -329.65136719 584.39111328 C-330.42867187 583.70662109 -331.20597656 583.02212891 -332.00683594 582.31689453 C-340.75339041 574.54669963 -348.95966077 566.55312251 -356.24487305 557.38012695 C-358.5723058 554.48931239 -360.96769015 551.67001335 -363.37792969 548.84814453 C-368.55608058 542.69002296 -373.10895568 536.17686107 -377.52636719 529.45361328 C-377.91188751 528.87051392 -378.29740784 528.28741455 -378.6946106 527.68664551 C-428.26245153 452.61450648 -444.2881053 365.38005727 -426.65136719 277.39111328 C-424.9806939 269.6258618 -422.94590657 261.99389516 -420.65136719 254.39111328 C-420.38018066 253.48441895 -420.10899414 252.57772461 -419.82958984 251.64355469 C-402.88818978 196.30295124 -364.64664506 141.19989616 -319.09667969 105.34423828 C-316.8468727 103.54726784 -314.75518859 101.66717992 -312.65136719 99.70361328 C-246.09133225 40.03729625 -150.73703984 12.38861028 0 0 Z " fill="#252F3E" transform="translate(3403.6513671875,-0.39111328125)"/>
<path d="M0 0 C1.72842432 -0.00323451 3.45684839 -0.00659996 5.18527222 -0.01008606 C8.78351471 -0.01601005 12.38173346 -0.01793328 15.97998047 -0.01733398 C19.58810498 -0.01725327 23.19610105 -0.02412123 26.80419922 -0.0378418 C50.38182789 -0.12599504 73.79047302 0.38184323 97.3046875 2.16796875 C98.305 2.24367096 99.3053125 2.31937317 100.3359375 2.39736938 C105.89609615 2.83125998 111.444822 3.34434382 116.9921875 3.91796875 C117.80112457 4.00000549 118.61006165 4.08204224 119.44351196 4.16656494 C251.15017239 17.65307847 251.15017239 17.65307847 284.3046875 51.16796875 C284.87703125 51.71582031 285.449375 52.26367188 286.0390625 52.828125 C304.68088101 72.3466627 302.84057689 109.68515608 302.6796875 134.48046875 C302.67270844 136.39857864 302.67270844 136.39857864 302.66558838 138.35543823 C302.58131304 158.14084982 301.93842286 177.54498642 299.3046875 197.16796875 C299.09846292 198.74655985 298.89241674 200.32517426 298.68652344 201.90380859 C287.29730703 288.3019972 264.21255903 373.37503385 194.3046875 528.16796875 C193.50393799 529.64378418 193.50393799 529.64378418 192.68701172 531.14941406 C180.00573276 554.5150309 166.36764253 577.25076666 151.3046875 599.16796875 C150.75603027 599.96895996 150.20737305 600.76995117 149.64208984 601.59521484 C131.26634177 628.35324664 111.07018181 653.77227666 88.88183594 677.47314453 C87.24271196 679.23456847 85.62030475 681.01032165 84 682.7890625 C76.0728895 691.45144451 67.76864049 699.58407943 59.10888672 707.51220703 C57.50950901 708.97999859 55.92212843 710.45915558 54.33984375 711.9453125 C38.54180514 726.62983297 22.57951124 739.85668621 -0.09375 739.4765625 C-6.69606153 738.91085468 -10.57990861 736.6137965 -15.0703125 731.85546875 C-20.13813603 725.34166296 -20.30883618 718.10682769 -19.6953125 710.16796875 C-18.09443932 701.63313069 -15.14501384 693.70474292 -11.85546875 685.69921875 C-11.12832139 683.89978334 -10.40118251 682.10034447 -9.67438221 680.30076885 C-8.90436031 678.3979133 -8.13068514 676.49658038 -7.35601807 674.59561157 C-4.8928071 668.54831628 -2.45770933 662.48968184 -0.02154541 656.4314518 C0.53317242 655.05206353 1.08812551 653.67276985 1.64331055 652.29356956 C39.64159163 557.88437703 76.10655244 461.02718347 107.45703125 213.83203125 C99.19935538 194.74140433 85.44531723 184.42332696 66.609375 176.7890625 C32.9330395 163.80139323 -3.93468918 160.19737168 -39.6953125 158.16796875 C-40.64325684 158.11012207 -41.59120117 158.05227539 -42.56787109 157.99267578 C-138.34133606 152.35500631 -235.5681262 162.26197479 -386.80151367 179.1340332 C-387.91424684 179.26238635 -387.91424684 179.26238635 -389.04945946 179.39333248 C-392.83101677 179.8308911 -396.61129433 180.27722813 -400.39028931 180.73641968 C-401.15476789 180.82859111 -401.91924646 180.92076254 -402.70689106 181.01572704 C-404.14474465 181.18947425 -405.58235003 181.36529468 -407.01963329 181.54369831 C-418.6261829 182.94207934 -429.89941702 183.34613775 -439.90234375 176.59765625 C-443.53895284 173.69787646 -446.20431934 170.64094823 -447.6953125 166.16796875 C-448.67253164 153.84859959 -446.73785741 144.99559098 -438.73779297 135.50585938 C-431.28850894 126.97916276 -423.05828741 120.62170672 -413.6328125 114.48046875 C-412.64464035 113.83025253 -412.64464035 113.83025253 -411.63650513 113.16690063 C-356.6392963 76.97988492 -295.90327418 51.15881828 -232.6953125 33.16796875 C-231.5187207 32.83055664 -230.34212891 32.49314453 -229.12988281 32.14550781 C-155.2924674 11.15151314 -76.7887304 0.03496289 0 0 Z " fill="#FF9900" transform="translate(3697.6953125,1498.83203125)"/>
</svg>
